<?xml version="1.0" encoding="utf-8"?>
<!-- Generator: Adobe Illustrator 17.0.0, SVG Export Plug-In . SVG Version: 6.00 Build 0)  -->
<!DOCTYPE svg PUBLIC "-//W3C//DTD SVG 1.1//EN" "http://www.w3.org/Graphics/SVG/1.1/DTD/svg11.dtd">
<svg version="1.1" id="Layer_1" xmlns="http://www.w3.org/2000/svg" xmlns:xlink="http://www.w3.org/1999/xlink" x="0px" y="0px"
	 width="3840px" height="1080px" viewBox="0 0 3840 1080" enable-background="new 0 0 3840 1080" xml:space="preserve">
<rect fill="#FAFBFC" width="3840" height="1080"/>
<rect x="-400" y="1289.894" fill="#565869" width="200" height="200"/>
<rect x="-200" y="1289.894" fill="#FF5C57" width="200" height="200"/>
<rect y="1289.894" fill="#2DAE58" width="200" height="200"/>
<rect x="200" y="1289.894" fill="#CF9C00" width="200" height="200"/>
<rect x="-400" y="1489.894" fill="#75798F" width="200" height="200"/>
<rect x="-200" y="1489.894" fill="#FFAEAC" width="200" height="200"/>
<rect y="1489.894" fill="#35CF68" width="200" height="200"/>
<rect x="200" y="1489.894" fill="#F5B900" width="200" height="200"/>
<rect x="400" y="1289.894" fill="#09A1ED" width="200" height="200"/>
<rect x="600" y="1289.894" fill="#F767BB" width="200" height="200"/>
<rect x="800" y="1289.894" fill="#13BBB7" width="200" height="200"/>
<rect x="1000" y="1289.894" fill="#FAFBF9" width="200" height="200"/>
<rect x="400" y="1489.894" fill="#14B1FF" width="200" height="200"/>
<rect x="600" y="1489.894" fill="#FF94D2" width="200" height="200"/>
<rect x="800" y="1489.894" fill="#13BBB7" width="200" height="200"/>
<rect x="1000" y="1489.894" fill="#FFFFFF" width="200" height="200"/>
<rect x="1201.757" y="1289.894" fill="#FAFBFC" width="200" height="200"/>
<rect x="1201.757" y="1489.894" fill="#686968" width="200" height="200"/>
<rect x="1401.757" y="1289.894" fill="#686968" width="100" height="400"/>
<g>
	<path fill="#FF5C57" d="M731.7,215.787c-54.005,90.009-111.011,171.017-177.018,252.025
		c-72.007,93.009-168.017,186.019-222.022,294.029c90.009,63.006,249.025,78.008,354.035,99.01
		c45.005,9.001,117.012,36.004,162.016,27.003c33.003-6.001,18.002,0,39.004-33.003c75.008-117.012,120.012-264.026,183.018-390.039
		c30.003-51.005,51.005-63.006,12.001-99.01c-57.006-54.005-162.016-69.007-234.023-93.009
		c-42.004-18.002-87.009-33.003-129.013-48.005"/>
</g>
<g>
	<path fill="#F767BB" d="M1268.254,255.142c-12.001,99.01-24.152,102.87-27.152,204.88c0,21.002-9.001,75.008,3,93.009
		c33.003,60.006,297.03,24.002,354.035,21.002c153.015-6.001,306.031-12.001,462.046-24.002c33.003-3,93.01,3,126.013-12.001
		c39.004-21.002,24.002-36.004,3-78.008c-18.002-36.004-39.004-90.009-72.007-111.011c-24.002-18.002-57.006-18.002-84.008-21.002
		c-123.012-18.002-246.025-27.003-369.037-36.004C1496.127,280.005,1439.271,258.143,1268.254,255.142"/>
</g>
<g>
	<g>
		<path fill="#14B1FF" d="M2230.898,679.863c-16.137,40.231-35.291,79.259-57.38,116.557
			c-22.097,37.311-47.346,73.106-77.195,104.648c-2.473,2.613,5.444,4.409,6.567,4.62c3.099,0.581,9.902,1.659,12.461-1.045
			c30.265-31.981,55.67-68.303,78.069-106.124c22.102-37.32,41.237-76.465,57.383-116.716
			C2252.004,678.811,2233.04,674.525,2230.898,679.863L2230.898,679.863z"/>
	</g>
</g>
<g>
	<g>
		<path fill="#13BBB7" d="M2102.837,911.356c3.224,0,3.224-5,0-5S2099.613,911.356,2102.837,911.356L2102.837,911.356z"/>
	</g>
</g>
<g>
	<g>
		<path fill="#13BBB7" d="M2349.072,583.303c-29.479,117.69-69.518,232.256-114.011,345.034
			c-3.838,9.729,13.405,19.627,17.582,9.041c44.493-112.778,84.532-227.345,114.011-345.034c1.266-5.055-1.083-9.866-5.766-12.277
			C2357.266,578.202,2350.334,578.266,2349.072,583.303L2349.072,583.303z"/>
	</g>
</g>
<g>
	<g>
		<path fill="#686968" d="M2486.359,467.191c-4.674,128.717-24.433,256.337-47.967,382.792
			c-7.603,40.852-15.653,81.618-23.8,122.364c-2.179,10.897,16.887,7.369,18.555-0.97c25.248-126.264,49.469-252.936,63.005-381.083
			c4.489-42.503,7.691-85.149,9.242-127.862C2505.746,452.74,2486.676,458.479,2486.359,467.191L2486.359,467.191z"/>
	</g>
</g>
<g>
	<g>
		<path fill="#565869" d="M2415.05,463.098c-0.025,128.713-4.874,257.809-23.894,385.26c-1.883,12.618-3.93,25.212-6.109,37.782
			c-0.709,4.095,17.563,9.866,17.639,9.428c21.989-126.896,28.734-255.904,29.845-384.516c0.111-12.842,0.155-25.684,0.158-38.526
			c0-2.471-6.372-5.245-8.055-6.144C2424.223,466.162,2415.051,461.952,2415.05,463.098L2415.05,463.098z"/>
	</g>
</g>
<g>
	<path fill="#F5B900" d="M1522.818,223.952c121.519,156.349-14.816,109.27,104.861,263.25l2.919,209.702
		c-9.476,7.365,167.276,76.891,155.431,86.097c68.699-53.395,137.398-106.789,206.096-160.184l-1.841-2.369
		c-121.519-156.349-244.879-315.067-368.239-473.785l0.267-0.042C1589.148,172.398,1555.983,198.175,1522.818,223.952"/>
</g>
<g>
	<path fill="#565869" d="M896.717,932.858c-117.012,12.001-228.023,30.003-342.034,63.006l6.001-3
		c-75.008-75.008-150.015-150.015-225.022-225.023v-6.001c252.025,0,504.05,0,759.076,0l3,3
		c-48.005,72.007-141.014,120.012-207.021,171.017"/>
</g>
<polygon fill="#09A1ED" points="284.656,227.788 200,554.821 845.712,614.827 "/>
<polygon fill="#FFAEAC" points="935.721,170.782 1118.739,554.821 1172.744,514.317 "/>
<line fill="none" stroke="#35CF68" stroke-width="21" stroke-miterlimit="10" x1="908.818" y1="677.833" x2="2136.818" y2="743.839"/>
<polygon fill="#FF94D2" points="2140.961,480.883 2021.961,449.009 1986.838,330.928 2070.715,244.72 2189.714,276.594 
	2224.837,394.675 "/>
<g>
	<path fill="#565869" d="M3233.95,215.787c-60.006,231.023-180.018,444.044-279.028,657.066
		c84.008,9.001,177.018-30.003,264.026-24.002c81.008,6.001,162.016,36.004,222.022,87.009
		c15.001-228.023,60.006-444.044,225.022-612.061c-159.016,30.003-261.026-93.009-381.038-171.017
		c-123.012-81.008-294.029-60.006-384.038,60.006c120.012-48.005,210.021-63.006,330.033,0"/>
</g>
<g>
	<path fill="#13BBB7" d="M2660.893,188.784c0,174.017-3,348.035-3,522.052c192.019-141.014,384.039-267.027,594.06-378.038
		c-99.01-15.001-201.02-36.004-303.031-48.005c-39.004-3-84.008,0-123.012-12.001c-60.006-18.002-108.011-81.008-165.016-93.009
		c-3,6.001-3,12.001-3,18.002"/>
</g>
<g>
	<path fill="#FF5C57" d="M2885.916,483.883c-75.008,117.012-177.018,216.022-276.028,312.031c15.001,0,39.004-9.001,54.005-18.002
		c120.012-54.005,234.023-120.012,354.035-171.017c69.007-30.003,150.015-54.005,219.022-90.009
		c-120.012-48.005-200.271-23.551-329.284-41.553"/>
</g>
<polygon fill="#14B1FF" points="3014.929,932.858 3710.998,480.883 3710.998,761.841 "/>
<polygon fill="#2DAE58" points="3362.963,104.343 3377.965,464.812 3653.992,170.782 "/>
<g>
	<g>
		<path fill="#FF5C57" d="M2369.864,1469.412c3.224,0,3.224-5,0-5S2366.64,1469.412,2369.864,1469.412L2369.864,1469.412z"/>
	</g>
</g>
</svg>
