<?xml version="1.0" encoding="utf-8"?>
<!-- Generator: Adobe Illustrator 17.0.0, SVG Export Plug-In . SVG Version: 6.00 Build 0)  -->
<!DOCTYPE svg PUBLIC "-//W3C//DTD SVG 1.1//EN" "http://www.w3.org/Graphics/SVG/1.1/DTD/svg11.dtd">
<svg version="1.1" id="Layer_1" xmlns="http://www.w3.org/2000/svg" xmlns:xlink="http://www.w3.org/1999/xlink" x="0px" y="0px"
	 width="3840px" height="1080px" viewBox="0 0 3840 1080" enable-background="new 0 0 3840 1080" xml:space="preserve">
<rect fill="#1e2030" width="3840" height="1080"/>
<polygon fill="#c3e88d" points="688.263,368.12 1096.135,248.108 688.263,527.136 "/>
<polygon fill="#fca7ea" points="1096.135,368.12 1504.007,248.108 1096.135,527.136 "/>
<polygon fill="#86e1fc" points="1510,368.12 1917.872,248.108 1510,527.136 "/>
<polygon fill="#c3e88d" points="1917.872,368.12 2325.744,248.108 1917.872,527.136 "/>
<polygon fill="#fca7ea" points="2330,368.12 2737.872,248.108 2330,527.136 "/>
<polygon fill="#86e1fc" points="2737.872,368.12 3145.744,248.108 2737.872,527.136 "/>
<polygon fill="#c3e88d" points="3151.737,368.12 3559.609,248.108 3151.737,527.136 "/>
<polygon fill="#fca7ea" points="280.391,368.12 688.263,248.108 280.391,527.136 "/>
<polygon fill="#86e1fc" points="280.391,647.148 688.263,527.136 280.391,806.164 "/>
<polygon fill="#c3e88d" points="688.263,647.148 1096.135,527.136 688.263,806.164 "/>
<polygon fill="#fca7ea" points="1102.128,647.148 1510,527.136 1102.128,806.164 "/>
<polygon fill="#86e1fc" points="1510,647.148 1917.872,527.136 1510,806.164 "/>
<polygon fill="#c3e88d" points="1922.128,647.148 2330,527.136 1922.128,806.164 "/>
<polygon fill="#fca7ea" points="2330,647.148 2737.872,527.136 2330,806.164 "/>
<polygon fill="#86e1fc" points="2743.865,647.148 3151.737,527.136 2743.865,806.164 "/>
<polygon fill="#c3e88d" points="3151.737,647.148 3559.609,527.136 3151.737,806.164 "/>
<polygon fill="#82aaff" points="3466.417,606.152 3058.545,726.164 3466.417,447.136 "/>
<polygon fill="#ff757f" points="3058.545,606.152 2650.673,726.164 3058.545,447.136 "/>
<polygon fill="#ffc777" points="2644.68,606.152 2236.808,726.164 2644.68,447.136 "/>
<polygon fill="#82aaff" points="2236.808,606.152 1828.936,726.164 2236.808,447.136 "/>
<polygon fill="#ff757f" points="1824.68,606.152 1416.808,726.164 1824.68,447.136 "/>
<polygon fill="#ffc777" points="1416.808,606.152 1008.936,726.164 1416.808,447.136 "/>
<polygon fill="#82aaff" points="1002.944,606.152 595.071,726.164 1002.944,447.136 "/>
<polygon fill="#ff757f" points="595.071,606.152 187.199,726.164 595.071,447.136 "/>
<polygon fill="#ffc777" points="3464.29,327.124 3056.417,447.136 3464.29,168.108 "/>
<polygon fill="#82aaff" points="3056.417,327.124 2648.545,447.136 3056.417,168.108 "/>
<polygon fill="#ff757f" points="2642.553,327.124 2234.68,447.136 2642.553,168.108 "/>
<polygon fill="#ffc777" points="2234.681,327.124 1826.808,447.136 2234.681,168.108 "/>
<polygon fill="#82aaff" points="1822.553,327.124 1414.68,447.136 1822.553,168.108 "/>
<polygon fill="#ff757f" points="1414.681,327.124 1006.808,447.136 1414.681,168.108 "/>
<polygon fill="#ffc777" points="1000.816,327.124 592.944,447.136 1000.816,168.108 "/>
<polygon fill="#82aaff" points="592.944,327.124 185.071,447.136 592.944,168.108 "/>
</svg>
